<?xml version="1.0" standalone="no"?>
<!DOCTYPE svg PUBLIC "-//W3C//DTD SVG 20010904//EN"
 "http://www.w3.org/TR/2001/REC-SVG-20010904/DTD/svg10.dtd">
<svg version="1.0" xmlns="http://www.w3.org/2000/svg"
 width="1280.000000pt" height="676.000000pt" viewBox="0 0 1280.000000 676.000000"
 preserveAspectRatio="xMidYMid meet">
<metadata>
Created by potrace 1.15, written by Peter Selinger 2001-2017
</metadata>
<g transform="translate(0.000000,676.000000) scale(0.100000,-0.100000)"
fill="#000000" stroke="none">
<path d="M4746 6733 c-52 -101 -46 -656 9 -863 12 -47 48 -168 79 -270 73
-241 99 -363 94 -461 -3 -68 -8 -87 -51 -171 -99 -196 -353 -491 -477 -553
-252 -127 -870 -324 -1018 -325 -55 0 -91 19 -172 90 -107 94 -154 120 -221
120 -85 0 -91 -10 -84 -129 7 -110 -6 -148 -65 -188 -70 -48 -105 -31 -253
119 -185 187 -286 254 -632 424 -377 184 -962 453 -1416 650 -539 233 -618
253 -477 118 74 -71 206 -171 413 -315 522 -361 1706 -1297 1997 -1577 124
-120 123 -119 186 -367 84 -331 132 -603 132 -753 0 -51 4 -102 10 -112 18
-33 72 -44 133 -26 71 21 129 73 167 150 28 57 32 75 41 217 14 214 14 566 1
607 -10 29 -9 32 11 32 37 0 129 -53 181 -105 43 -42 57 -66 85 -145 66 -183
93 -219 135 -181 41 37 90 55 152 55 102 1 109 -13 139 -269 13 -106 26 -341
25 -452 0 -34 34 -63 75 -63 54 0 103 52 170 179 81 157 149 256 230 336 83
83 166 130 255 144 86 14 900 14 1285 0 165 -6 396 -12 512 -12 l213 -1 6 -33
c13 -67 -29 -228 -103 -396 -19 -45 -110 -233 -200 -417 -260 -527 -375 -781
-528 -1160 -145 -359 -213 -602 -176 -625 21 -12 88 44 247 208 444 458 930
1037 1172 1399 40 59 106 169 148 245 137 248 298 478 497 709 163 187 131
170 363 199 532 68 949 148 1172 227 286 100 1065 559 1957 1152 475 316 556
395 587 578 l11 64 86 51 c323 193 813 611 910 776 68 116 48 185 -69 245
-185 94 -629 115 -1320 63 -301 -23 -515 -35 -1015 -56 -1205 -52 -1701 -106
-2440 -265 -104 -23 -210 -45 -235 -50 -25 -5 -110 -23 -190 -40 -704 -150
-1005 -175 -1160 -95 -59 30 -164 131 -421 402 -649 685 -922 919 -1099 940
-46 5 -49 4 -64 -24z"/>
</g>
</svg>
